<svg width="23" height="21" viewBox="0 0 24 23" fill="none" xmlns="http://www.w3.org/2000/svg">
<path d="M12.0004 22.2036C10.6462 22.2036 9.378 21.9465 8.19572 21.4323C7.01272 20.9174 5.98356 20.2219 5.10822 19.3458C4.23217 18.4705 3.53667 17.4413 3.02172 16.2583C2.5075 15.076 2.25039 13.8078 2.25039 12.4536C2.25039 11.0995 2.5075 9.83089 3.02172 8.64789C3.53667 7.46561 4.23217 6.43644 5.10822 5.56039C5.98356 4.68505 7.01272 3.99028 8.19572 3.47605C9.378 2.96111 10.6462 2.70364 12.0004 2.70364C13.3546 2.70364 14.6231 2.96111 15.8061 3.47605C16.9884 3.99028 18.0176 4.68505 18.8936 5.56039C19.769 6.43644 20.4641 7.46561 20.9791 8.64789C21.4933 9.83089 21.7504 11.0995 21.7504 12.4536C21.7504 13.8078 21.4933 15.076 20.9791 16.2583C20.4641 17.4413 19.769 18.4705 18.8936 19.3458C18.0176 20.2219 16.9884 20.9174 15.8061 21.4323C14.6231 21.9465 13.3546 22.2036 12.0004 22.2036ZM15.0337 17.0036L16.5504 15.487L13.0837 12.0203V7.03697H10.9171V12.887L15.0337 17.0036ZM5.06706 0.916138L6.58372 2.4328L1.97956 7.03697L0.462891 5.5203L5.06706 0.916138ZM18.9337 0.916138L23.5379 5.5203L22.0212 7.03697L17.4171 2.4328L18.9337 0.916138Z" fill="#1C1B1F"/>
</svg>
