<svg width="16" height="16" viewBox="0 0 16 16" fill="none" xmlns="http://www.w3.org/2000/svg">
<rect width="16" height="16" rx="3" fill="#EBFE63"/>
<mask id="mask0_919_288" style="mask-type:alpha" maskUnits="userSpaceOnUse" x="1" y="1" width="14" height="14">
<rect x="1.5" y="1" width="14" height="14" fill="#FFFFFF"/>
</mask>
<g mask="url(#mask0_919_288)">
<path d="M7.45793 4.2089V2.04224H8.54126V4.2089H7.45793ZM11.06 5.69849L10.3152 4.95369L11.8319 3.3964L12.5902 4.16828L11.06 5.69849ZM11.7913 8.54224V7.4589H13.9579V8.54224H11.7913ZM7.45793 13.9589V11.7922H8.54126V13.9589H7.45793ZM4.93918 5.6714L3.39543 4.16828L4.1673 3.40994L5.69751 4.94015L4.93918 5.6714ZM11.8183 12.6047L10.3152 11.0474L11.0465 10.3162L12.5902 11.8058L11.8183 12.6047ZM2.04126 8.54224V7.4589H4.20793V8.54224H2.04126ZM4.1673 12.6047L3.40897 11.8329L4.92563 10.3162L5.31834 10.6818L5.71105 11.061L4.1673 12.6047ZM7.99959 11.2506C7.09682 11.2506 6.32945 10.9346 5.69751 10.3027C5.06557 9.67071 4.74959 8.90335 4.74959 8.00057C4.74959 7.09779 5.06557 6.33043 5.69751 5.69849C6.32945 5.06654 7.09682 4.75057 7.99959 4.75057C8.90237 4.75057 9.66973 5.06654 10.3017 5.69849C10.9336 6.33043 11.2496 7.09779 11.2496 8.00057C11.2496 8.90335 10.9336 9.67071 10.3017 10.3027C9.66973 10.9346 8.90237 11.2506 7.99959 11.2506ZM7.99959 10.1672C8.59543 10.1672 9.1055 9.95508 9.5298 9.53078C9.95411 9.10647 10.1663 8.5964 10.1663 8.00057C10.1663 7.40474 9.95411 6.89467 9.5298 6.47036C9.1055 6.04606 8.59543 5.8339 7.99959 5.8339C7.40376 5.8339 6.89369 6.04606 6.46939 6.47036C6.04508 6.89467 5.83293 7.40474 5.83293 8.00057C5.83293 8.5964 6.04508 9.10647 6.46939 9.53078C6.89369 9.95508 7.40376 10.1672 7.99959 10.1672ZM7.99959 10.1672C7.40376 10.1672 6.89369 9.95508 6.46939 9.53078C6.04508 9.10647 5.83293 8.5964 5.83293 8.00057C5.83293 7.40474 6.04508 6.89467 6.46939 6.47036C6.89369 6.04606 7.40376 5.8339 7.99959 5.8339C8.59543 5.8339 9.1055 6.04606 9.5298 6.47036C9.95411 6.89467 10.1663 7.40474 10.1663 8.00057C10.1663 8.5964 9.95411 9.10647 9.5298 9.53078C9.1055 9.95508 8.59543 10.1672 7.99959 10.1672Z" fill="#0B0B19"/>
</g>
</svg>
