<svg width="25" height="25" viewBox="0 0 25 25" fill="none" xmlns="http://www.w3.org/2000/svg">
<mask id="mask0_24_210" style="mask-type:alpha" maskUnits="userSpaceOnUse" x="0" y="0" width="25" height="25">
<rect width="25" height="25" fill="#7BD3A3"/>
</mask>
<g mask="url(#mask0_24_210)">
<path d="M8.85449 9.37501L7.70866 6.87501L5.20866 5.72918L7.70866 4.58334L8.85449 2.08334L10.0003 4.58334L12.5003 5.72918L10.0003 6.87501L8.85449 9.37501ZM15.6253 12.5L14.6357 10.3646L12.5003 9.37501L14.6357 8.38543L15.6253 6.25001L16.6149 8.38543L18.7503 9.37501L16.6149 10.3646L15.6253 12.5ZM4.16699 14.5833L3.17741 12.4479L1.04199 11.4583L3.17741 10.4688L4.16699 8.33334L5.15658 10.4688L7.29199 11.4583L5.15658 12.4479L4.16699 14.5833ZM4.68783 21.3542L3.12533 19.7917L10.9378 11.9792L15.1045 16.1458L22.5003 7.83855L23.9587 9.29689L15.1045 19.2708L10.9378 15.1042L4.68783 21.3542Z" fill="white"/>
</g>
</svg>
