<svg width="25" height="25" viewBox="0 0 25 25" fill="none" xmlns="http://www.w3.org/2000/svg">
<mask id="mask0_84_2529" style="mask-type:alpha" maskUnits="userSpaceOnUse" x="0" y="0" width="25" height="25">
<rect width="25" height="25" fill="#D9D9D9"/>
</mask>
<g mask="url(#mask0_84_2529)">
<path d="M5.31283 16.7188C4.93088 16.059 4.64442 15.382 4.45345 14.6875C4.26248 13.9931 4.16699 13.2813 4.16699 12.5521C4.16699 10.2257 4.97428 8.24655 6.58887 6.6146C8.20345 4.98266 10.1739 4.16669 12.5003 4.16669H12.6826L11.016 2.50002L12.4743 1.04169L16.641 5.20835L12.4743 9.37502L11.016 7.91669L12.6826 6.25002H12.5003C10.7642 6.25002 9.28852 6.86183 8.07324 8.08544C6.85796 9.30974 6.25033 10.7986 6.25033 12.5521C6.25033 13.0035 6.30241 13.4462 6.40658 13.8802C6.51074 14.3143 6.66699 14.7396 6.87533 15.1563L5.31283 16.7188ZM12.5264 23.9584L8.3597 19.7917L12.5264 15.625L13.9847 17.0834L12.318 18.75H12.5003C14.2364 18.75 15.7121 18.1382 16.9274 16.9146C18.1427 15.6903 18.7503 14.2014 18.7503 12.4479C18.7503 11.9965 18.6982 11.5538 18.5941 11.1198C18.4899 10.6858 18.3337 10.2604 18.1253 9.84377L19.6878 8.28127C20.0698 8.94099 20.3562 9.61808 20.5472 10.3125C20.7382 11.007 20.8337 11.7188 20.8337 12.4479C20.8337 14.7743 20.0264 16.7535 18.4118 18.3854C16.7972 20.0174 14.8267 20.8334 12.5003 20.8334H12.318L13.9847 22.5L12.5264 23.9584Z" fill="white"/>
</g>
</svg>
