<svg width="25" height="25" viewBox="0 0 25 25" fill="none" xmlns="http://www.w3.org/2000/svg">
<mask id="mask0_24_251" style="mask-type:alpha" maskUnits="userSpaceOnUse" x="0" y="0" width="25" height="25">
<rect width="25" height="25" fill="#D9D9D9"/>
</mask>
<g mask="url(#mask0_24_251)">
<path d="M13.6458 23.9583C12.1875 23.9583 10.8201 23.6806 9.54375 23.125C8.26806 22.5694 7.15729 21.8188 6.21146 20.8729C5.26493 19.9264 4.51389 18.8149 3.95833 17.5385C3.40278 16.2628 3.125 14.8958 3.125 13.4375C3.125 10.9028 3.93229 8.66736 5.54688 6.73125C7.16146 4.79583 9.21875 3.59375 11.7188 3.125C11.4063 4.84375 11.5017 6.52326 12.0052 8.16354C12.5087 9.80451 13.3767 11.2413 14.6094 12.474C15.842 13.7066 17.2788 14.5747 18.9198 15.0781C20.5601 15.5816 22.2396 15.6771 23.9583 15.3646C23.5069 17.8646 22.309 19.9219 20.3646 21.5365C18.4201 23.151 16.1806 23.9583 13.6458 23.9583ZM13.6458 21.875C15.1736 21.875 16.5885 21.4931 17.8906 20.7292C19.1927 19.9653 20.217 18.9149 20.9635 17.5781C19.4705 17.4392 18.0556 17.0618 16.7188 16.4458C15.3819 15.8292 14.184 14.9913 13.125 13.9323C12.066 12.8733 11.224 11.6753 10.599 10.3385C9.97396 9.00174 9.6007 7.58681 9.47917 6.09375C8.14236 6.84028 7.09653 7.86875 6.34167 9.17917C5.58611 10.4903 5.20833 11.9097 5.20833 13.4375C5.20833 15.7813 6.02882 17.7733 7.66979 19.4135C9.31007 21.0545 11.3021 21.875 13.6458 21.875Z" fill="white"/>
</g>
</svg>
