<svg width="16" height="16" viewBox="0 0 16 16" fill="none" xmlns="http://www.w3.org/2000/svg">
<path d="M8.0744 15.4584C7.03024 15.4584 6.05121 15.2595 5.13732 14.8617C4.22392 14.4639 3.42862 13.9264 2.7514 13.2492C2.07369 12.5715 1.53595 11.7757 1.13817 10.8618C0.740392 9.94842 0.541504 8.96964 0.541504 7.92548C0.541504 6.11062 1.11952 4.51007 2.27556 3.12382C3.4316 1.73806 4.90462 0.877372 6.69461 0.541748C6.47086 1.77237 6.53923 2.9749 6.89972 4.14933C7.2602 5.32427 7.88173 6.35302 8.76429 7.23558C9.64686 8.11815 10.6756 8.73968 11.8505 9.10016C13.025 9.46065 14.2275 9.52902 15.4581 9.30527C15.1349 11.0953 14.2772 12.5683 12.885 13.7243C11.4928 14.8804 9.88926 15.4584 8.0744 15.4584Z" fill="white"/>
</svg>
