<svg width="21" height="21" viewBox="0 0 21 21" fill="none" xmlns="http://www.w3.org/2000/svg">
<rect width="21.001" height="21.001" rx="10.5005" fill="black"/>
<path d="M7.58702 9.30335L10.5005 6.39017L13.4149 9.30452L15.1101 7.60958L10.5005 3L5.89209 7.60812L7.58702 9.30306M3 10.5005L4.69523 8.80498L6.39017 10.5005L4.69494 12.1948L3 10.5005ZM7.58702 11.6974L10.5005 14.6102L13.4149 11.6959L15.111 13.3899L10.5005 18.001L5.89209 13.3923L5.88974 13.3897L7.58702 11.6971M14.6102 10.5005L16.3052 8.80556L18.001 10.5005L16.3061 12.1954L14.6102 10.5005Z" fill="#F3BA2F"/>
<path d="M12.2193 10.5005L10.5006 8.77917L9.22903 10.0502L9.08254 10.1967L8.78164 10.4976L8.7793 10.4999L8.78164 10.5022L10.5006 12.2209L12.2204 10.5011H12.219" fill="#F3BA2F"/>
</svg>
