<svg width="26" height="26" viewBox="0 0 26 26" fill="none" xmlns="http://www.w3.org/2000/svg">
<rect width="26" height="26" rx="7" fill="#65FFCB"/>
<mask id="mask0_551_5740" style="mask-type:alpha" maskUnits="userSpaceOnUse" x="2" y="2" width="22" height="22">
<rect x="2" y="2" width="22" height="22" fill="#D9D9D9"/>
</mask>
<g mask="url(#mask0_551_5740)">
<path d="M5.20841 20.0583V10.0437C4.96397 9.92153 4.75008 9.73422 4.56675 9.48183C4.38341 9.23006 4.29175 8.93611 4.29175 8.6V6.4C4.29175 5.94167 4.45216 5.55208 4.773 5.23125C5.09383 4.91042 5.48341 4.75 5.94175 4.75H20.0584C20.5167 4.75 20.9063 4.91042 21.2272 5.23125C21.548 5.55208 21.7084 5.94167 21.7084 6.4V8.6C21.7084 8.93611 21.6167 9.23006 21.4334 9.48183C21.2501 9.73422 21.0362 9.92153 20.7917 10.0437V20.0583C20.7917 20.5167 20.6313 20.9062 20.3105 21.2271C19.9897 21.5479 19.6001 21.7083 19.1417 21.7083H6.85841C6.40008 21.7083 6.0105 21.5479 5.68966 21.2271C5.36883 20.9062 5.20841 20.5167 5.20841 20.0583ZM6.58341 10.25V20.0583C6.58341 20.1347 6.6103 20.1998 6.66408 20.2536C6.71725 20.3068 6.78203 20.3333 6.85841 20.3333H19.1417C19.2181 20.3333 19.2832 20.3068 19.337 20.2536C19.3902 20.1998 19.4167 20.1347 19.4167 20.0583V10.25H6.58341ZM20.0584 8.875C20.1348 8.875 20.1999 8.84811 20.2537 8.79433C20.3068 8.74117 20.3334 8.67639 20.3334 8.6V6.4C20.3334 6.32361 20.3068 6.25853 20.2537 6.20475C20.1999 6.15158 20.1348 6.125 20.0584 6.125H5.94175C5.86536 6.125 5.80058 6.15158 5.74741 6.20475C5.69364 6.25853 5.66675 6.32361 5.66675 6.4V8.6C5.66675 8.67639 5.69364 8.74117 5.74741 8.79433C5.80058 8.84811 5.86536 8.875 5.94175 8.875H20.0584ZM10.4334 14.5583H15.5667V13.1833H10.4334V14.5583Z" fill="#1C1B1F"/>
</g>
</svg>
