<svg width="12" height="12" viewBox="0 0 12 12" fill="none" xmlns="http://www.w3.org/2000/svg">
<rect width="12" height="12" rx="6" fill="#7700F6"/>
<mask id="mask0_83_1352" style="mask-type:alpha" maskUnits="userSpaceOnUse" x="1" y="1" width="10" height="10">
<rect x="1" y="1" width="10" height="10" fill="white"/>
</mask>
<g mask="url(#mask0_83_1352)">
<path d="M3.08341 9.75C2.96536 9.75 2.86633 9.71 2.78633 9.63C2.70661 9.55028 2.66675 9.45139 2.66675 9.33333V8.91667C2.31953 8.91667 2.02439 8.79514 1.78133 8.55208C1.53828 8.30903 1.41675 8.01389 1.41675 7.66667V5.58333C1.41675 5.35417 1.49841 5.15792 1.66175 4.99458C1.8248 4.83153 2.02091 4.75 2.25008 4.75C2.47925 4.75 2.67536 4.83153 2.83841 4.99458C3.00175 5.15792 3.08341 5.35417 3.08341 5.58333V7.25H8.91675V5.58333C8.91675 5.35417 8.99828 5.15792 9.16133 4.99458C9.32467 4.83153 9.52092 4.75 9.75008 4.75C9.97925 4.75 10.1755 4.83153 10.3388 4.99458C10.5019 5.15792 10.5834 5.35417 10.5834 5.58333V7.66667C10.5834 8.01389 10.4619 8.30903 10.2188 8.55208C9.97578 8.79514 9.68064 8.91667 9.33342 8.91667V9.33333C9.33342 9.45139 9.29342 9.55028 9.21342 9.63C9.13369 9.71 9.0348 9.75 8.91675 9.75C8.79869 9.75 8.6998 9.71 8.62008 9.63C8.54008 9.55028 8.50008 9.45139 8.50008 9.33333V8.91667H3.50008V9.33333C3.50008 9.45139 3.46022 9.55028 3.3805 9.63C3.3005 9.71 3.20147 9.75 3.08341 9.75ZM3.91675 6.41667V5.58333C3.91675 5.20139 3.80036 4.85931 3.56758 4.55708C3.33508 4.25514 3.0348 4.04167 2.66675 3.91667V3.5C2.66675 3.15278 2.78828 2.85764 3.03133 2.61458C3.27439 2.37153 3.56953 2.25 3.91675 2.25H8.08342C8.43064 2.25 8.72578 2.37153 8.96883 2.61458C9.21189 2.85764 9.33342 3.15278 9.33342 3.5V3.91667C8.95842 4.01389 8.65633 4.21694 8.42717 4.52583C8.198 4.835 8.08342 5.1875 8.08342 5.58333V6.41667H3.91675Z" fill="white"/>
</g>
</svg>
