<svg width="24" height="24" viewBox="0 0 24 24" fill="none" xmlns="http://www.w3.org/2000/svg">
<rect width="24" height="24" rx="5" fill="#4C4A57"/>
<mask id="mask0_341_1947" style="mask-type:alpha" maskUnits="userSpaceOnUse" x="1" y="1" width="22" height="22">
<rect x="1" y="1" width="22" height="22" fill="#D9D9D9"/>
</mask>
<g mask="url(#mask0_341_1947)">
<path d="M3.06302 18.1876V16.8126H20.938V18.1876H3.06302ZM3.84219 12.6876L2.87969 12.1376L3.7276 10.6709H2.05469V9.57093H3.7276L2.87969 8.1501L3.84219 7.6001L4.66719 9.02093L5.49219 7.6001L6.45469 8.1501L5.60677 9.57093H7.27969V10.6709H5.60677L6.45469 12.1376L5.49219 12.6876L4.66719 11.2209L3.84219 12.6876ZM11.1755 12.6876L10.213 12.1376L11.0609 10.6709H9.38802V9.57093H11.0609L10.213 8.1501L11.1755 7.6001L12.0005 9.02093L12.8255 7.6001L13.788 8.1501L12.9401 9.57093H14.613V10.6709H12.9401L13.788 12.1376L12.8255 12.6876L12.0005 11.2209L11.1755 12.6876ZM18.5089 12.6876L17.5464 12.1376L18.3943 10.6709H16.7214V9.57093H18.3943L17.5464 8.1501L18.5089 7.6001L19.3339 9.02093L20.1589 7.6001L21.1214 8.1501L20.2734 9.57093H21.9464V10.6709H20.2734L21.1214 12.1376L20.1589 12.6876L19.3339 11.2209L18.5089 12.6876Z" fill="white"/>
</g>
</svg>
