<svg width="26" height="26" viewBox="0 0 26 26" fill="none" xmlns="http://www.w3.org/2000/svg">
<rect width="26" height="26" rx="7" fill="#FFE06B"/>
<mask id="mask0_27_1464" style="mask-type:alpha" maskUnits="userSpaceOnUse" x="2" y="2" width="22" height="22">
<rect x="2" y="2" width="22" height="22" fill="#D9D9D9"/>
</mask>
<g mask="url(#mask0_27_1464)">
<path d="M15.75 19.875C13.825 19.875 12.1979 19.2104 10.8688 17.8813C9.53958 16.5521 8.875 14.925 8.875 13C8.875 11.075 9.53958 9.44792 10.8688 8.11875C12.1979 6.78958 13.825 6.125 15.75 6.125C17.675 6.125 19.3021 6.78958 20.6313 8.11875C21.9604 9.44792 22.625 11.075 22.625 13C22.625 14.925 21.9604 16.5521 20.6313 17.8813C19.3021 19.2104 17.675 19.875 15.75 19.875ZM8.41667 19.6229C6.91944 19.2257 5.70486 18.412 4.77292 17.1818C3.84097 15.9523 3.375 14.5583 3.375 13C3.375 11.4417 3.84097 10.0477 4.77292 8.81817C5.70486 7.588 6.91944 6.77431 8.41667 6.37708V7.82083C7.31667 8.20278 6.43056 8.86736 5.75833 9.81458C5.08611 10.7618 4.75 11.8236 4.75 13C4.75 14.1764 5.08611 15.2382 5.75833 16.1854C6.43056 17.1326 7.31667 17.7972 8.41667 18.1792V19.6229ZM15.75 18.5C17.2778 18.5 18.5764 17.9653 19.6458 16.8958C20.7153 15.8264 21.25 14.5278 21.25 13C21.25 11.4722 20.7153 10.1736 19.6458 9.10417C18.5764 8.03472 17.2778 7.5 15.75 7.5C14.2222 7.5 12.9236 8.03472 11.8542 9.10417C10.7847 10.1736 10.25 11.4722 10.25 13C10.25 14.5278 10.7847 15.8264 11.8542 16.8958C12.9236 17.9653 14.2222 18.5 15.75 18.5Z" fill="#1C1B1F"/>
</g>
</svg>
