<svg width="13" height="14" viewBox="0 0 13 14" fill="none" xmlns="http://www.w3.org/2000/svg">
<rect y="0.5" width="13" height="13" rx="6.5" fill="#FFE06B"/>
<mask id="mask0_955_4978" style="mask-type:alpha" maskUnits="userSpaceOnUse" x="1" y="1" width="11" height="12">
<rect x="1.25" y="1.75" width="10.5" height="10.5" fill="black"/>
</mask>
<g>
<path d="M7.81323 10.5C6.83615 10.5 6.00855 10.1609 5.33042 9.48281C4.6523 8.80469 4.31323 7.97708 4.31323 7C4.31323 6.02292 4.6523 5.19531 5.33042 4.51719C6.00855 3.83906 6.83615 3.5 7.81323 3.5C8.79032 3.5 9.61792 3.83906 10.296 4.51719C10.9742 5.19531 11.3132 6.02292 11.3132 7C11.3132 7.97708 10.9742 8.80469 10.296 9.48281C9.61792 10.1609 8.79032 10.5 7.81323 10.5ZM4.31323 10.3906C3.54032 10.1865 2.90959 9.77083 2.42104 9.14375C1.9325 8.51667 1.68823 7.80208 1.68823 7C1.68823 6.19792 1.9325 5.48333 2.42104 4.85625C2.90959 4.22917 3.54032 3.81354 4.31323 3.60938V4.52812C3.78823 4.71042 3.36532 5.0276 3.04448 5.47969C2.72365 5.93177 2.56323 6.43854 2.56323 7C2.56323 7.56146 2.72365 8.06823 3.04448 8.52031C3.36532 8.9724 3.78823 9.28958 4.31323 9.47187V10.3906ZM7.81323 9.625C8.5424 9.625 9.16219 9.36979 9.67261 8.85938C10.183 8.34896 10.4382 7.72917 10.4382 7C10.4382 6.27083 10.183 5.65104 9.67261 5.14062C9.16219 4.63021 8.5424 4.375 7.81323 4.375C7.08407 4.375 6.46427 4.63021 5.95386 5.14062C5.44344 5.65104 5.18823 6.27083 5.18823 7C5.18823 7.72917 5.44344 8.34896 5.95386 8.85938C6.46427 9.36979 7.08407 9.625 7.81323 9.625Z" fill="black"/>
</g>
</svg>
