<svg width="20" height="20" viewBox="0 0 20 20" fill="none" xmlns="http://www.w3.org/2000/svg">
<mask id="mask0_46_666" style="mask-type:alpha" maskUnits="userSpaceOnUse" x="0" y="0" width="20" height="20">
<rect width="20" height="20" fill="#3C19A5"/>
</mask>
<g>
<path d="M6.92734 13.9041H7.69337L12.4127 9.17808L11.6466 8.41096L6.92734 13.137V13.9041ZM14.7518 8.38356L12.4263 6.08219L13.1924 5.31507C13.4021 5.10502 13.6598 5 13.9655 5C14.2708 5 14.5284 5.10502 14.7381 5.31507L15.5041 6.08219C15.7139 6.29224 15.8233 6.54575 15.8324 6.84274C15.8416 7.13936 15.7412 7.39269 15.5315 7.60274L14.7518 8.38356ZM13.9584 9.19178L8.15846 15H5.83301V12.6712L11.633 6.86301L13.9584 9.19178Z" fill="black"/>
</g>
</svg>
