<svg width="17" height="18" viewBox="0 0 17 18" fill="none" xmlns="http://www.w3.org/2000/svg">
<rect y="0.5" width="17" height="17" rx="8.5" fill="#434053"/>
<mask id="mask0_539_4732" style="mask-type:alpha" maskUnits="userSpaceOnUse" x="2" y="3" width="13" height="12">
<rect x="2.5" y="3" width="12" height="12" fill="#D9D9D9"/>
</mask>
<g mask="url(#mask0_539_4732)">
<path d="M7.15 13.2501L8.6625 11.7501H13.25V13.2501H7.15ZM11.35 7.3251L9.6625 5.6501L10.325 5.0001C10.4667 4.85843 10.6417 4.7876 10.85 4.7876C11.0583 4.7876 11.2375 4.85843 11.3875 5.0001L12 5.6126C12.1417 5.7626 12.2167 5.9396 12.225 6.1436C12.2333 6.34793 12.1625 6.52093 12.0125 6.6626L11.35 7.3251ZM10.8125 7.8751L5.4375 13.2501H3.75V11.5626L9.125 6.1876L10.8125 7.8751Z" fill="black"/>
</g>
</svg>
