<svg width="26" height="25" viewBox="0 0 26 25" fill="none" xmlns="http://www.w3.org/2000/svg">
<mask id="mask0_91_2649" style="mask-type:alpha" maskUnits="userSpaceOnUse" x="0" y="0" width="26" height="25">
<rect x="0.799805" width="25" height="25" fill="#D9D9D9"/>
</mask>
<g mask="url(#mask0_91_2649)">
<path d="M13.2995 21.875L11.7891 20.5209C10.0356 18.941 8.58594 17.5781 7.4401 16.4323C6.29427 15.2865 5.38281 14.2577 4.70573 13.3459C4.02865 12.4347 3.55573 11.5972 3.28698 10.8334C3.01753 10.0695 2.88281 9.28821 2.88281 8.4896C2.88281 6.85766 3.42969 5.49481 4.52344 4.40106C5.61719 3.30731 6.98003 2.76044 8.61198 2.76044C9.51476 2.76044 10.3741 2.95141 11.1901 3.33335C12.0061 3.7153 12.7092 4.25349 13.2995 4.94794C13.8898 4.25349 14.5929 3.7153 15.4089 3.33335C16.2248 2.95141 17.0842 2.76044 17.987 2.76044C19.6189 2.76044 20.9818 3.30731 22.0755 4.40106C23.1693 5.49481 23.7161 6.85766 23.7161 8.4896C23.7161 9.28821 23.5818 10.0695 23.313 10.8334C23.0436 11.5972 22.5703 12.4347 21.8932 13.3459C21.2161 14.2577 20.3047 15.2865 19.1589 16.4323C18.013 17.5781 16.5634 18.941 14.8099 20.5209L13.2995 21.875ZM13.2995 19.0625C14.9661 17.5695 16.3377 16.2889 17.4141 15.2209C18.4905 14.1535 19.3411 13.225 19.9661 12.4354C20.5911 11.6452 21.0252 10.9417 21.2682 10.325C21.5113 9.70905 21.6328 9.09724 21.6328 8.4896C21.6328 7.44794 21.2856 6.57988 20.5911 5.88544C19.8967 5.19099 19.0286 4.84377 17.987 4.84377C17.171 4.84377 16.4158 5.07363 15.7214 5.53335C15.0269 5.99377 14.5495 6.57988 14.2891 7.29169H12.3099C12.0495 6.57988 11.572 5.99377 10.8776 5.53335C10.1832 5.07363 9.42795 4.84377 8.61198 4.84377C7.57031 4.84377 6.70226 5.19099 6.00781 5.88544C5.31337 6.57988 4.96615 7.44794 4.96615 8.4896C4.96615 9.09724 5.08767 9.70905 5.33073 10.325C5.57378 10.9417 6.00781 11.6452 6.63281 12.4354C7.25781 13.225 8.10851 14.1535 9.1849 15.2209C10.2613 16.2889 11.6328 17.5695 13.2995 19.0625Z" fill="white"/>
</g>
</svg>
