<svg width="26" height="26" viewBox="0 0 26 26" fill="none" xmlns="http://www.w3.org/2000/svg">
<rect width="26" height="26" rx="7" fill="#EBFE63"/>
<mask id="mask0_53_850" style="mask-type:alpha" maskUnits="userSpaceOnUse" x="2" y="2" width="22" height="22">
<rect x="2" y="2" width="22" height="22" fill="#D9D9D9"/>
</mask>
<g mask="url(#mask0_53_850)">
<path d="M12.3125 21.0209V19.1875H10.4792V17.8125H12.3125V15.475C11.1208 15.2917 10.1354 14.7493 9.35625 13.848C8.57708 12.9466 8.1875 11.8924 8.1875 10.6855C8.1875 9.35629 8.65744 8.22574 9.59733 7.29379C10.5366 6.36185 11.6708 5.89587 13 5.89587C14.3292 5.89587 15.4637 6.36185 16.4036 7.29379C17.3429 8.22574 17.8125 9.35629 17.8125 10.6855C17.8125 11.8924 17.4229 12.9466 16.6438 13.848C15.8646 14.7493 14.8792 15.2917 13.6875 15.475V17.8125H15.5208V19.1875H13.6875V21.0209H12.3125ZM13 14.1459C13.9472 14.1459 14.7569 13.8098 15.4292 13.1375C16.1014 12.4653 16.4375 11.6556 16.4375 10.7084C16.4375 9.76115 16.1014 8.95143 15.4292 8.27921C14.7569 7.60699 13.9472 7.27087 13 7.27087C12.0528 7.27087 11.2431 7.60699 10.5708 8.27921C9.89861 8.95143 9.5625 9.76115 9.5625 10.7084C9.5625 11.6556 9.89861 12.4653 10.5708 13.1375C11.2431 13.8098 12.0528 14.1459 13 14.1459Z" fill="#1C1B1F"/>
</g>
</svg>
