<svg width="12" height="12" viewBox="0 0 12 12" fill="none" xmlns="http://www.w3.org/2000/svg">
<rect width="12" height="12" rx="6" fill="#FF6B6B"/>
<mask id="mask0_83_1364" style="mask-type:alpha" maskUnits="userSpaceOnUse" x="1" y="1" width="10" height="10">
<rect x="1" y="1" width="10" height="10" fill="#FFFFFE"/>
</mask>
<g mask="url(#mask0_83_1364)">
<path d="M4.85417 10.1667L4.6875 8.83334C4.59722 8.79862 4.51222 8.75695 4.4325 8.70834C4.3525 8.65973 4.27431 8.60765 4.19792 8.55209L2.95833 9.07293L1.8125 7.09376L2.88542 6.28126C2.87847 6.23265 2.875 6.1857 2.875 6.14043V5.85918C2.875 5.81418 2.87847 5.76737 2.88542 5.71876L1.8125 4.90626L2.95833 2.92709L4.19792 3.44793C4.27431 3.39237 4.35417 3.34029 4.4375 3.29168C4.52083 3.24307 4.60417 3.2014 4.6875 3.16668L4.85417 1.83334H7.14583L7.3125 3.16668C7.40278 3.2014 7.48792 3.24307 7.56792 3.29168C7.64764 3.34029 7.72569 3.39237 7.80208 3.44793L9.04167 2.92709L10.1875 4.90626L9.11458 5.71876C9.12153 5.76737 9.125 5.81418 9.125 5.85918V6.14043C9.125 6.1857 9.11806 6.23265 9.10417 6.28126L10.1771 7.09376L9.03125 9.07293L7.80208 8.55209C7.72569 8.60765 7.64583 8.65973 7.5625 8.70834C7.47917 8.75695 7.39583 8.79862 7.3125 8.83334L7.14583 10.1667H4.85417ZM6.02083 7.45834C6.42361 7.45834 6.76736 7.31598 7.05208 7.03126C7.33681 6.74654 7.47917 6.40279 7.47917 6.00001C7.47917 5.59723 7.33681 5.25348 7.05208 4.96876C6.76736 4.68404 6.42361 4.54168 6.02083 4.54168C5.61111 4.54168 5.26556 4.68404 4.98417 4.96876C4.70306 5.25348 4.5625 5.59723 4.5625 6.00001C4.5625 6.40279 4.70306 6.74654 4.98417 7.03126C5.26556 7.31598 5.61111 7.45834 6.02083 7.45834Z" fill="#FFFFFE"/>
</g>
</svg>
