<svg width="26" height="25" viewBox="0 0 26 25" fill="none" xmlns="http://www.w3.org/2000/svg">
<mask id="mask0_91_2619" style="mask-type:alpha" maskUnits="userSpaceOnUse" x="0" y="0" width="26" height="25">
<rect x="0.400391" width="25" height="25" fill="#D9D9D9"/>
</mask>
<g mask="url(#mask0_91_2619)">
<path d="M19.8272 22.3698C19.7056 22.3698 19.5928 22.3482 19.4886 22.3052C19.3844 22.2614 19.2803 22.1962 19.1761 22.1094L13.6813 16.6146V15.7812L16.1553 13.3333H16.9626L22.4574 18.8281C22.5615 18.9149 22.631 19.0146 22.6657 19.1271C22.7004 19.2403 22.7178 19.3576 22.7178 19.4791C22.7178 19.618 22.7004 19.7396 22.6657 19.8437C22.631 19.9479 22.5615 20.0521 22.4574 20.1562L20.5042 22.1094C20.4001 22.1962 20.2959 22.2614 20.1917 22.3052C20.0876 22.3482 19.966 22.3698 19.8272 22.3698ZM19.8272 20.5989L20.9469 19.4791L16.2074 14.7396L15.0876 15.8594L19.8272 20.5989ZM5.94694 22.3958C5.80805 22.3958 5.68236 22.3698 5.56986 22.3177C5.45666 22.2656 5.35666 22.1962 5.26986 22.1094L3.31673 20.1562C3.21256 20.0521 3.13895 19.9437 3.0959 19.8312C3.05215 19.718 3.03027 19.6007 3.03027 19.4791C3.03027 19.3576 3.05215 19.2403 3.0959 19.1271C3.13895 19.0146 3.21256 18.9062 3.31673 18.8021L8.75944 13.3594H10.9469L11.7803 12.526L7.43132 8.17706H5.94694L3.05631 5.28644L5.63444 2.70831L8.52507 5.59894V7.08331L12.874 11.4323L15.973 8.35935L14.4365 6.8229L15.7646 5.52081H13.1084L12.5355 4.9479L15.8688 1.61456L16.4157 2.18748V4.84373L17.7438 3.5156L21.6761 7.42185C21.9539 7.69963 22.1581 8.01213 22.2886 8.35935C22.4185 8.70658 22.4834 9.06248 22.4834 9.42706C22.4834 9.75692 22.4313 10.0781 22.3272 10.3906C22.223 10.7031 22.0494 10.9896 21.8063 11.25L19.6449 9.08852L18.1605 10.5469L17.0667 9.4531L12.0407 14.4791V16.6927L6.59798 22.1094C6.49382 22.1962 6.38965 22.2656 6.28548 22.3177C6.18132 22.3698 6.06847 22.3958 5.94694 22.3958ZM5.94694 20.5729L10.7126 15.8073L9.61882 14.6875L4.82715 19.4791L5.94694 20.5729Z" fill="white"/>
</g>
</svg>
