<svg width="25" height="25" viewBox="0 0 25 25" fill="none" xmlns="http://www.w3.org/2000/svg">
<mask id="mask0_24_237" style="mask-type:alpha" maskUnits="userSpaceOnUse" x="0" y="0" width="25" height="25">
<rect width="25" height="25" fill="#7BD3A3"/>
</mask>
<g mask="url(#mask0_24_237)">
<path d="M5.20833 22.9167C4.63542 22.9167 4.14479 22.7129 3.73646 22.3052C3.32882 21.8969 3.125 21.4063 3.125 20.8334V8.33335C3.125 7.76044 3.32882 7.27016 3.73646 6.86252C4.14479 6.45419 4.63542 6.25002 5.20833 6.25002H7.29167C7.29167 4.80905 7.79965 3.58058 8.81563 2.5646C9.8309 1.54933 11.059 1.04169 12.5 1.04169C13.941 1.04169 15.1694 1.54933 16.1854 2.5646C17.2007 3.58058 17.7083 4.80905 17.7083 6.25002H19.7917C20.3646 6.25002 20.8552 6.45419 21.2635 6.86252C21.6712 7.27016 21.875 7.76044 21.875 8.33335V20.8334C21.875 21.4063 21.6712 21.8969 21.2635 22.3052C20.8552 22.7129 20.3646 22.9167 19.7917 22.9167H5.20833ZM5.20833 20.8334H19.7917V8.33335H5.20833V20.8334ZM12.5 14.5834C13.941 14.5834 15.1694 14.0754 16.1854 13.0594C17.2007 12.0441 17.7083 10.816 17.7083 9.37502H15.625C15.625 10.2431 15.3212 10.9809 14.7135 11.5886C14.1059 12.1962 13.3681 12.5 12.5 12.5C11.6319 12.5 10.8941 12.1962 10.2865 11.5886C9.67882 10.9809 9.375 10.2431 9.375 9.37502H7.29167C7.29167 10.816 7.79965 12.0441 8.81563 13.0594C9.8309 14.0754 11.059 14.5834 12.5 14.5834ZM9.375 6.25002H15.625C15.625 5.38196 15.3212 4.64412 14.7135 4.03648C14.1059 3.42884 13.3681 3.12502 12.5 3.12502C11.6319 3.12502 10.8941 3.42884 10.2865 4.03648C9.67882 4.64412 9.375 5.38196 9.375 6.25002Z" fill="white"/>
</g>
</svg>
