<svg width="25" height="25" viewBox="0 0 25 25" fill="none" xmlns="http://www.w3.org/2000/svg">
<mask id="mask0_24_257" style="mask-type:alpha" maskUnits="userSpaceOnUse" x="0" y="0" width="25" height="25">
<rect width="25" height="25" fill="#D9D9D9"/>
</mask>
<g mask="url(#mask0_24_257)">
<path d="M5.20833 22.9167C4.63542 22.9167 4.14479 22.7128 3.73646 22.3052C3.32882 21.8969 3.125 21.4062 3.125 20.8333V8.33332C3.125 7.76041 3.32882 7.27013 3.73646 6.86249C4.14479 6.45416 4.63542 6.24999 5.20833 6.24999H7.29167C7.29167 4.80902 7.79965 3.58055 8.81563 2.56457C9.8309 1.5493 11.059 1.04166 12.5 1.04166C13.941 1.04166 15.1694 1.5493 16.1854 2.56457C17.2007 3.58055 17.7083 4.80902 17.7083 6.24999H19.7917C20.3646 6.24999 20.8552 6.45416 21.2635 6.86249C21.6712 7.27013 21.875 7.76041 21.875 8.33332V20.8333C21.875 21.4062 21.6712 21.8969 21.2635 22.3052C20.8552 22.7128 20.3646 22.9167 19.7917 22.9167H5.20833ZM12.5 14.5833C13.941 14.5833 15.1694 14.0753 16.1854 13.0594C17.2007 12.0441 17.7083 10.816 17.7083 9.37499H15.625C15.625 10.243 15.3212 10.9809 14.7135 11.5885C14.1059 12.1962 13.3681 12.5 12.5 12.5C11.6319 12.5 10.8941 12.1962 10.2865 11.5885C9.67882 10.9809 9.375 10.243 9.375 9.37499H7.29167C7.29167 10.816 7.79965 12.0441 8.81563 13.0594C9.8309 14.0753 11.059 14.5833 12.5 14.5833ZM9.375 6.24999H15.625C15.625 5.38193 15.3212 4.64409 14.7135 4.03645C14.1059 3.42881 13.3681 3.12499 12.5 3.12499C11.6319 3.12499 10.8941 3.42881 10.2865 4.03645C9.67882 4.64409 9.375 5.38193 9.375 6.24999Z" fill="white"/>
</g>
</svg>
