<svg width="22" height="22" viewBox="0 0 22 22" fill="none" xmlns="http://www.w3.org/2000/svg">
<mask id="mask0_113_1613" style="mask-type:alpha" maskUnits="userSpaceOnUse" x="0" y="0" width="22" height="22">
<rect x="0.369873" y="0.173458" width="21.2602" height="21.2602" fill="#D9D9D9"/>
</mask>
<g mask="url(#mask0_113_1613)">
<path d="M5.15344 20.0163C4.61751 20.0163 4.15888 19.8314 3.77755 19.4617C3.39558 19.0913 3.20459 18.6462 3.20459 18.1265V8.67754C3.20459 8.15784 3.39558 7.7128 3.77755 7.3424C4.15888 6.97263 4.61751 6.78774 5.15344 6.78774H6.12787V4.89795C6.12787 3.59084 6.60306 2.47649 7.55345 1.5549C8.50319 0.633942 9.65204 0.173462 11 0.173462C12.3479 0.173462 13.4971 0.633942 14.4475 1.5549C15.3973 2.47649 15.8721 3.59084 15.8721 4.89795V6.78774H16.8465C17.3825 6.78774 17.8414 6.97263 18.2234 7.3424C18.6047 7.7128 18.7954 8.15784 18.7954 8.67754V18.1265C18.7954 18.6462 18.6047 19.0913 18.2234 19.4617C17.8414 19.8314 17.3825 20.0163 16.8465 20.0163H5.15344ZM8.07672 6.78774H13.9233V4.89795C13.9233 4.11053 13.6391 3.44123 13.0706 2.89004C12.5022 2.33885 11.812 2.06326 11 2.06326C10.188 2.06326 9.49775 2.33885 8.92934 2.89004C8.36092 3.44123 8.07672 4.11053 8.07672 4.89795V6.78774Z" fill="#252331"/>
<path d="M11.6485 10.1774C11.375 10.1774 11.1302 10.2268 10.9141 10.3258C10.7005 10.4248 10.5195 10.568 10.3711 10.7555C10.2227 10.9404 10.1094 11.1656 10.0313 11.4313C9.95314 11.6943 9.91408 11.9912 9.91408 12.3219C9.91408 12.7646 9.97658 13.1461 10.1016 13.4664C10.2266 13.7841 10.4167 14.0289 10.6719 14.2008C10.9271 14.3701 11.25 14.4547 11.6406 14.4547C11.8828 14.4547 12.1185 14.4313 12.3477 14.3844C12.5768 14.3375 12.8138 14.2737 13.0586 14.193V14.9899C12.8268 15.081 12.5925 15.1474 12.3555 15.1891C12.1185 15.2308 11.8451 15.2516 11.5352 15.2516C10.9518 15.2516 10.4675 15.1305 10.082 14.8883C9.69924 14.6461 9.41278 14.305 9.22267 13.8649C9.03517 13.4248 8.94142 12.9091 8.94142 12.318C8.94142 11.8857 9.00132 11.4899 9.12111 11.1305C9.2409 10.7711 9.41538 10.4612 9.64455 10.2008C9.87372 9.93778 10.1563 9.73596 10.4922 9.59534C10.8307 9.45211 11.2175 9.38049 11.6524 9.38049C11.9388 9.38049 12.2201 9.41305 12.4961 9.47815C12.7748 9.54065 13.0326 9.63049 13.2695 9.74768L12.9414 10.5211C12.7435 10.4274 12.5365 10.3466 12.3203 10.2789C12.1042 10.2112 11.8802 10.1774 11.6485 10.1774Z" fill="#B4B4B9"/>
</g>
</svg>
