<svg width="22" height="22" viewBox="0 0 22 22" fill="none" xmlns="http://www.w3.org/2000/svg">
<mask id="mask0_113_1599" style="mask-type:alpha" maskUnits="userSpaceOnUse" x="0" y="0" width="22" height="22">
<rect x="0.369873" y="0.173462" width="21.2602" height="21.2602" fill="#D9D9D9"/>
</mask>
<g mask="url(#mask0_113_1599)">
<path d="M5.15344 20.0163C4.61751 20.0163 4.15888 19.8314 3.77755 19.4617C3.39558 19.0913 3.20459 18.6462 3.20459 18.1265V8.67754C3.20459 8.15784 3.39558 7.7128 3.77755 7.3424C4.15888 6.97263 4.61751 6.78774 5.15344 6.78774H6.12787V4.89795C6.12787 3.59084 6.60306 2.47649 7.55345 1.5549C8.50319 0.633942 9.65204 0.173462 11 0.173462C12.3479 0.173462 13.4971 0.633942 14.4475 1.5549C15.3973 2.47649 15.8721 3.59084 15.8721 4.89795V6.78774H16.8465C17.3825 6.78774 17.8414 6.97263 18.2234 7.3424C18.6047 7.7128 18.7954 8.15784 18.7954 8.67754V18.1265C18.7954 18.6462 18.6047 19.0913 18.2234 19.4617C17.8414 19.8314 17.3825 20.0163 16.8465 20.0163H5.15344ZM8.07672 6.78774H13.9233V4.89795C13.9233 4.11053 13.6391 3.44123 13.0706 2.89004C12.5022 2.33885 11.812 2.06326 11 2.06326C10.188 2.06326 9.49775 2.33885 8.92934 2.89004C8.36092 3.44123 8.07672 4.11053 8.07672 4.89795V6.78774Z" fill="#252331"/>
<path d="M12.75 15.1735H9.51564V9.46252H12.75V10.2516H10.4531V11.8024H12.6055V12.5875H10.4531V14.3805H12.75V15.1735Z" fill="#B4B4B9"/>
</g>
</svg>
