<svg width="26" height="26" viewBox="0 0 26 26" fill="none" xmlns="http://www.w3.org/2000/svg">
<rect width="26" height="26" rx="7" fill="#A0E6F0"/>
<mask id="mask0_53_837" style="mask-type:alpha" maskUnits="userSpaceOnUse" x="2" y="2" width="22" height="22">
<rect x="2" y="2" width="22" height="22" fill="#D9D9D9"/>
</mask>
<g mask="url(#mask0_53_837)">
<path d="M20.1038 5.89587V10.9375H18.7288V8.25629L14.558 12.4042C14.8483 12.832 15.0814 13.2903 15.2574 13.7792C15.4328 14.2681 15.5205 14.7723 15.5205 15.2917C15.5205 16.6362 15.0545 17.7743 14.1226 18.7063C13.1906 19.6382 12.0525 20.1042 10.708 20.1042C9.36356 20.1042 8.22537 19.6382 7.29342 18.7063C6.36148 17.7743 5.89551 16.6362 5.89551 15.2917C5.89551 13.9473 6.36148 12.8091 7.29342 11.8771C8.22537 10.9452 9.36356 10.4792 10.708 10.4792C11.2275 10.4792 11.728 10.5632 12.2095 10.7313C12.6905 10.8993 13.1448 11.1362 13.5726 11.4417L17.7434 7.27087H15.0622V5.89587H20.1038ZM10.708 11.8542C9.76079 11.8542 8.95106 12.1903 8.27884 12.8625C7.60662 13.5348 7.27051 14.3445 7.27051 15.2917C7.27051 16.2389 7.60662 17.0487 8.27884 17.7209C8.95106 18.3931 9.76079 18.7292 10.708 18.7292C11.6552 18.7292 12.465 18.3931 13.1372 17.7209C13.8094 17.0487 14.1455 16.2389 14.1455 15.2917C14.1455 14.3445 13.8094 13.5348 13.1372 12.8625C12.465 12.1903 11.6552 11.8542 10.708 11.8542Z" fill="#1C1B1F"/>
</g>
</svg>
