<svg width="27" height="36" viewBox="0 0 27 36" fill="none" xmlns="http://www.w3.org/2000/svg">
<path d="M13.5 21.6562C12.1438 21.6562 10.9974 21.188 10.0609 20.2516C9.12448 19.3151 8.65625 18.1688 8.65625 16.8125V5.1875C8.65625 3.83125 9.12448 2.6849 10.0609 1.74844C10.9974 0.811979 12.1438 0.34375 13.5 0.34375C14.8562 0.34375 16.0026 0.811979 16.9391 1.74844C17.8755 2.6849 18.3438 3.83125 18.3438 5.1875V16.8125C18.3438 18.1688 17.8755 19.3151 16.9391 20.2516C16.0026 21.188 14.8562 21.6562 13.5 21.6562ZM12.0469 35.7031V29.3094C8.85 28.9542 6.19433 27.5902 4.07987 25.2174C1.96413 22.8433 0.90625 20.0417 0.90625 16.8125H3.8125C3.8125 19.4927 4.75735 21.777 6.64706 23.6654C8.53548 25.5551 10.8198 26.5 13.5 26.5C16.1802 26.5 18.4652 25.5551 20.3549 23.6654C22.2433 21.777 23.1875 19.4927 23.1875 16.8125H26.0938C26.0938 20.0417 25.0365 22.8433 22.9221 25.2174C20.8063 27.5902 18.15 28.9542 14.9531 29.3094V35.7031H12.0469ZM13.5 18.75C14.049 18.75 14.5094 18.564 14.8814 18.192C15.2521 17.8213 15.4375 17.3615 15.4375 16.8125V5.1875C15.4375 4.63854 15.2521 4.17806 14.8814 3.80606C14.5094 3.43535 14.049 3.25 13.5 3.25C12.951 3.25 12.4912 3.43535 12.1205 3.80606C11.7485 4.17806 11.5625 4.63854 11.5625 5.1875V16.8125C11.5625 17.3615 11.7485 17.8213 12.1205 18.192C12.4912 18.564 12.951 18.75 13.5 18.75Z" fill="#908F94"/>
</svg>
