<svg width="26" height="26" viewBox="0 0 26 26" fill="none" xmlns="http://www.w3.org/2000/svg">
<rect width="26" height="26" rx="13" fill="white"/>
<mask id="mask0_551_5746" style="mask-type:alpha" maskUnits="userSpaceOnUse" x="2" y="2" width="21" height="21">
<rect x="2" y="2" width="21" height="21" fill="#D9D9D9"/>
</mask>
<g mask="url(#mask0_551_5746)">
<path d="M13.4625 22.125C12.2375 22.125 11.0889 21.8917 10.0167 21.425C8.94517 20.9583 8.01212 20.3277 7.21762 19.5332C6.42254 18.7382 5.79167 17.8045 5.325 16.7324C4.85833 15.6608 4.625 14.5125 4.625 13.2875C4.625 11.1583 5.30312 9.28058 6.65937 7.65425C8.01562 6.0285 9.74375 5.01875 11.8437 4.625C11.5812 6.06875 11.6615 7.47954 12.0844 8.85737C12.5073 10.2358 13.2365 11.4427 14.2719 12.4781C15.3073 13.5135 16.5142 14.2427 17.8926 14.6656C19.2705 15.0885 20.6812 15.1687 22.125 14.9062C21.7458 17.0062 20.7396 18.7344 19.1062 20.0906C17.4729 21.4469 15.5917 22.125 13.4625 22.125Z" fill="#1C1B1F"/>
</g>
</svg>
