<svg width="26" height="25" viewBox="0 0 26 25" fill="none" xmlns="http://www.w3.org/2000/svg">
<mask id="mask0_91_2709" style="mask-type:alpha" maskUnits="userSpaceOnUse" x="0" y="0" width="26" height="25">
<rect x="0.599609" width="25" height="25" fill="#D9D9D9"/>
</mask>
<g mask="url(#mask0_91_2709)">
<path d="M5.1569 21.0677V18.6719H8.33398L5.65169 9.92186C5.2003 9.67881 4.83155 9.32707 4.54544 8.86665C4.25864 8.40693 4.11523 7.89929 4.11523 7.34374C4.11523 6.56249 4.39301 5.88957 4.94857 5.32499C5.50412 4.7611 6.18121 4.47916 6.97982 4.47916C7.63954 4.47916 8.21246 4.67429 8.69857 5.06457C9.18468 5.45554 9.52322 5.95485 9.71419 6.56249H13.2819V5.26041C13.2819 5.05207 13.3559 4.86978 13.5038 4.71353C13.651 4.55728 13.8375 4.47916 14.0632 4.47916C14.202 4.47916 14.3281 4.51388 14.4413 4.58332C14.5538 4.65277 14.6447 4.75693 14.7142 4.89582V5.02603L16.5371 3.30728C16.6934 3.16839 16.8711 3.08159 17.0704 3.04686C17.2704 3.01214 17.4659 3.03818 17.6569 3.12499L21.6413 4.97395C21.8149 5.06075 21.9364 5.18645 22.0059 5.35103C22.0753 5.51631 22.0753 5.67707 22.0059 5.83332C21.9191 5.98957 21.7975 6.09374 21.6413 6.14582C21.485 6.19791 21.3288 6.18922 21.1725 6.11978L17.3184 4.32291L14.8444 6.61457V8.07291L17.3184 10.3125L21.1725 8.54165C21.3288 8.47221 21.4895 8.46353 21.6548 8.51561C21.8194 8.5677 21.9364 8.67186 22.0059 8.82811C22.0927 9.00172 22.0968 9.16249 22.0184 9.3104C21.9406 9.45763 21.8149 9.57464 21.6413 9.66145L17.6569 11.5625C17.4659 11.6493 17.2704 11.6753 17.0704 11.6406C16.8711 11.6059 16.6934 11.5104 16.5371 11.3542L14.7142 9.68749V9.8177C14.6447 9.92186 14.5538 10.0132 14.4413 10.0917C14.3281 10.1694 14.202 10.2083 14.0632 10.2083C13.8375 10.2083 13.651 10.1344 13.5038 9.98645C13.3559 9.83922 13.2819 9.65277 13.2819 9.42707V8.12499H9.71419C9.66211 8.31596 9.5885 8.49825 9.49336 8.67186C9.39753 8.84547 9.28885 9.01041 9.16732 9.16666L14.2975 18.6719H18.1777V21.0677H5.1569ZM6.97982 8.64582C7.3444 8.64582 7.65273 8.51978 7.90482 8.2677C8.15621 8.01631 8.2819 7.70832 8.2819 7.34374C8.2819 6.97916 8.15621 6.67082 7.90482 6.41874C7.65273 6.16735 7.3444 6.04166 6.97982 6.04166C6.61523 6.04166 6.30725 6.16735 6.05586 6.41874C5.80378 6.67082 5.67773 6.97916 5.67773 7.34374C5.67773 7.70832 5.80378 8.01631 6.05586 8.2677C6.30725 8.51978 6.61523 8.64582 6.97982 8.64582ZM9.94857 18.6719H12.5007L7.91732 10.1042C7.86523 10.1389 7.77843 10.1691 7.6569 10.1948C7.53537 10.2212 7.43989 10.2257 7.37044 10.2083L9.94857 18.6719Z" fill="white"/>
</g>
</svg>
