<svg width="20" height="20" viewBox="0 0 20 20" fill="none" xmlns="http://www.w3.org/2000/svg">
<path d="M0.5 5.025V0.5H5.025V2H2V5.025H0.5ZM0.5 19.5V14.975H2V18H5.025V19.5H0.5ZM14.975 19.5V18H18V14.975H19.5V19.5H14.975ZM18 5.025V2H14.975V0.5H19.5V5.025H18ZM15.225 15.225H16.575V16.575H15.225V15.225ZM15.225 12.5H16.575V13.875H15.225V12.5ZM13.875 13.875H15.225V15.225H13.875V13.875ZM12.5 15.225H13.875V16.575H12.5V15.225ZM11.15 13.875H12.5V15.225H11.15V13.875ZM13.875 11.15H15.225V12.5H13.875V11.15ZM12.5 12.5H13.875V13.875H12.5V12.5ZM11.15 11.15H12.5V12.5H11.15V11.15ZM16.575 3.425V8.85H11.15V3.425H16.575ZM8.85 11.15V16.575H3.425V11.15H8.85ZM8.85 3.425V8.85H3.425V3.425H8.85ZM7.65 15.375V12.35H4.625V15.375H7.65ZM7.65 7.65V4.625H4.625V7.65H7.65ZM15.375 7.65V4.625H12.35V7.65H15.375Z" fill="#3DF1A9"/>
</svg>
