<svg width="26" height="26" viewBox="0 0 26 26" fill="none" xmlns="http://www.w3.org/2000/svg">
<rect width="26" height="26" rx="7" fill="black"/>
<mask id="mask0_53_876" style="mask-type:alpha" maskUnits="userSpaceOnUse" x="2" y="2" width="22" height="22">
<rect x="2" y="2" width="22" height="22" fill="#D9D9D9"/>
</mask>
<g mask="url(#mask0_53_876)">
<path d="M12.0603 16.4604C12.0603 15.4215 12.1788 14.6271 12.416 14.0771C12.6525 13.5271 13.1526 12.9159 13.9165 12.2437C14.4971 11.709 14.9401 11.2277 15.2457 10.8C15.5513 10.3722 15.704 9.89094 15.704 9.35622C15.704 8.63816 15.4596 8.03836 14.9707 7.5568C14.4818 7.07586 13.8096 6.83538 12.954 6.83538C12.1596 6.83538 11.5448 7.0453 11.1097 7.46513C10.674 7.88558 10.3415 8.35552 10.1124 8.87497L8.43945 8.14163C8.80612 7.2708 9.36376 6.54113 10.1124 5.95263C10.861 5.36475 11.8082 5.0708 12.954 5.0708C14.436 5.0708 15.5742 5.48697 16.3686 6.3193C17.1631 7.15225 17.5603 8.14163 17.5603 9.28747C17.5603 10.0055 17.4038 10.6396 17.091 11.1896C16.7775 11.7396 16.3075 12.3125 15.6811 12.9083C14.8867 13.6416 14.3938 14.2182 14.2025 14.6381C14.0119 15.0585 13.9165 15.6659 13.9165 16.4604H12.0603ZM12.954 21.7083C12.5721 21.7083 12.2476 21.5745 11.9805 21.3068C11.7129 21.0397 11.579 20.7152 11.579 20.3333C11.579 19.9514 11.7129 19.6269 11.9805 19.3598C12.2476 19.0921 12.5721 18.9583 12.954 18.9583C13.3207 18.9583 13.6415 19.0921 13.9165 19.3598C14.1915 19.6269 14.329 19.9514 14.329 20.3333C14.329 20.7152 14.1915 21.0397 13.9165 21.3068C13.6415 21.5745 13.3207 21.7083 12.954 21.7083Z" fill="white"/>
</g>
</svg>
