<svg width="26" height="25" viewBox="0 0 26 25" fill="none" xmlns="http://www.w3.org/2000/svg">
<mask id="mask0_91_2659" style="mask-type:alpha" maskUnits="userSpaceOnUse" x="0" y="0" width="26" height="25">
<rect x="0.200195" width="25" height="25" fill="#D9D9D9"/>
</mask>
<g mask="url(#mask0_91_2659)">
<path d="M15.0436 22.2916C14.6443 22.691 14.1495 22.8906 13.5592 22.8906C12.969 22.8906 12.4742 22.691 12.0749 22.2916L2.9082 13.125C2.71723 12.934 2.56549 12.7083 2.45299 12.4479C2.3398 12.1875 2.2832 11.9097 2.2832 11.6146V4.16665C2.2832 3.59373 2.48737 3.1031 2.8957 2.69477C3.30334 2.28713 3.79362 2.08331 4.36654 2.08331H11.8145C12.1096 2.08331 12.3874 2.13956 12.6478 2.25206C12.9082 2.36526 13.1339 2.51734 13.3249 2.70831L22.4915 11.901C22.8908 12.3003 23.0905 12.7906 23.0905 13.3719C23.0905 13.9538 22.8908 14.4444 22.4915 14.8437L15.0436 22.2916ZM13.5592 20.8333L21.0072 13.3854L11.8145 4.16665H4.36654V11.6146L13.5592 20.8333ZM6.9707 8.33331C7.40473 8.33331 7.77348 8.18123 8.07695 7.87706C8.38112 7.57359 8.5332 7.20484 8.5332 6.77081C8.5332 6.33679 8.38112 5.96804 8.07695 5.66456C7.77348 5.3604 7.40473 5.20831 6.9707 5.20831C6.53668 5.20831 6.16793 5.3604 5.86445 5.66456C5.56029 5.96804 5.4082 6.33679 5.4082 6.77081C5.4082 7.20484 5.56029 7.57359 5.86445 7.87706C6.16793 8.18123 6.53668 8.33331 6.9707 8.33331Z" fill="white"/>
</g>
</svg>
