<svg width="24" height="24" viewBox="0 0 24 24" fill="none" xmlns="http://www.w3.org/2000/svg">
<mask id="mask0_14_1001" style="mask-type:alpha" maskUnits="userSpaceOnUse" x="0" y="0" width="24" height="24">
<rect width="24" height="24" fill="#D9D9D9"/>
</mask>
<g mask="url(#mask0_14_1001)">
<path d="M9.8002 21.3L9.4252 18.3C9.30853 18.2834 9.1002 18.1917 8.8002 18.025C8.5002 17.8584 8.15853 17.65 7.7752 17.4L5.0252 18.55L2.8252 14.725L5.2252 12.9C5.19186 12.7667 5.1712 12.629 5.1632 12.487C5.15453 12.3457 5.1502 12.1834 5.1502 12C5.1502 11.8834 5.15853 11.7457 5.1752 11.587C5.19186 11.429 5.20853 11.25 5.2252 11.05L2.8252 9.25005L5.0252 5.45005L7.8002 6.62505C8.03353 6.44172 8.28753 6.26672 8.5622 6.10005C8.83753 5.93338 9.1252 5.80005 9.4252 5.70005L9.8002 2.67505H14.2002L14.5752 5.67505C14.8919 5.79172 15.1712 5.92505 15.4132 6.07505C15.6545 6.22505 15.9002 6.40838 16.1502 6.62505L18.9752 5.45005L21.1752 9.25005L18.6752 11.125C18.7085 11.2917 18.7295 11.4374 18.7382 11.562C18.7462 11.6874 18.7502 11.8334 18.7502 12C18.7502 12.15 18.7462 12.296 18.7382 12.438C18.7295 12.5794 18.7085 12.7334 18.6752 12.9L21.1502 14.725L18.9252 18.55L16.1502 17.375C15.9335 17.5584 15.7002 17.725 15.4502 17.875C15.2002 18.025 14.9085 18.1667 14.5752 18.3L14.2002 21.3H9.8002ZM11.9752 14.9C12.7752 14.9 13.4545 14.6167 14.0132 14.05C14.5712 13.4834 14.8502 12.8 14.8502 12C14.8502 11.2 14.5712 10.5167 14.0132 9.95005C13.4545 9.38338 12.7752 9.10005 11.9752 9.10005C11.1585 9.10005 10.4712 9.38338 9.9132 9.95005C9.35453 10.5167 9.0752 11.2 9.0752 12C9.0752 12.8 9.35453 13.4834 9.9132 14.05C10.4712 14.6167 11.1585 14.9 11.9752 14.9ZM11.9752 13.5C11.5585 13.5 11.2045 13.354 10.9132 13.062C10.6212 12.7707 10.4752 12.4167 10.4752 12C10.4752 11.5834 10.6212 11.2294 10.9132 10.938C11.2045 10.646 11.5585 10.5 11.9752 10.5C12.3752 10.5 12.7252 10.646 13.0252 10.938C13.3252 11.2294 13.4752 11.5834 13.4752 12C13.4752 12.4167 13.3252 12.7707 13.0252 13.062C12.7252 13.354 12.3752 13.5 11.9752 13.5ZM11.0002 19.9H12.9502L13.3252 17.2C13.8252 17.0667 14.2752 16.8834 14.6752 16.65C15.0752 16.4167 15.4669 16.1084 15.8502 15.725L18.3502 16.8L19.3252 15.1L17.1252 13.475C17.2085 13.2084 17.2629 12.9584 17.2882 12.725C17.3129 12.4917 17.3252 12.25 17.3252 12C17.3252 11.75 17.3129 11.5124 17.2882 11.287C17.2629 11.0624 17.2085 10.8167 17.1252 10.55L19.3252 8.87505L18.3752 7.20005L15.8252 8.27505C15.5252 7.94171 15.1419 7.63738 14.6752 7.36205C14.2085 7.08738 13.7502 6.89172 13.3002 6.77505L13.0002 4.07505H11.0252L10.7002 6.77505C10.1669 6.90838 9.7002 7.08338 9.3002 7.30005C8.9002 7.51672 8.5002 7.83338 8.1002 8.25005L5.6252 7.20005L4.6502 8.87505L6.8002 10.475C6.71686 10.725 6.65853 10.975 6.6252 11.225C6.59186 11.475 6.5752 11.7334 6.5752 12C6.5752 12.25 6.58786 12.496 6.6132 12.738C6.63786 12.9794 6.69186 13.2334 6.7752 13.5L4.6502 15.1L5.6252 16.8L8.0752 15.75C8.4752 16.1334 8.88353 16.446 9.3002 16.688C9.71686 16.9294 10.1752 17.1084 10.6752 17.225L11.0002 19.9Z" fill="white"/>
</g>
</svg>
