<!DOCTYPE svg PUBLIC "-//W3C//DTD SVG 1.1//EN" "http://www.w3.org/Graphics/SVG/1.1/DTD/svg11.dtd">

<!-- Uploaded to: SVG Repo, www.svgrepo.com, Transformed by: SVG Repo Mixer Tools -->
<svg width="25" height="25" viewBox="0 0 25 25" id="icons" xmlns="http://www.w3.org/2000/svg" fill="none" stroke="#D9D9D9">

<g id="SVGRepo_bgCarrier" stroke-width="0"/>

<g id="SVGRepo_tracerCarrier" stroke-linecap="round" stroke-linejoin="round"/>

<g id="SVGRepo_iconCarrier">

<g transform="scale(0.045)">

<path d="M259.92,262.91,216.4,149.77a9,9,0,0,0-16.8,0L156.08,262.91a9,9,0,0,1-5.17,5.17L37.77,311.6a9,9,0,0,0,0,16.8l113.14,43.52a9,9,0,0,1,5.17,5.17L199.6,490.23a9,9,0,0,0,16.8,0l43.52-113.14a9,9,0,0,1,5.17-5.17L378.23,328.4a9,9,0,0,0,0-16.8L265.09,268.08A9,9,0,0,1,259.92,262.91Z" fill="none" stroke="#D9D9D9" stroke-linecap="round" stroke-linejoin="round" stroke-width="32"/>

<polygon points="108 68 88 16 68 68 16 88 68 108 88 160 108 108 160 88 108 68" fill="none" stroke="#D9D9D9" stroke-linecap="round" stroke-linejoin="round" stroke-width="32"/>

<polygon points="426.67 117.33 400 48 373.33 117.33 304 144 373.33 170.67 400 240 426.67 170.67 496 144 426.67 117.33" fill="none" stroke="#D9D9D9" stroke-linecap="round" stroke-linejoin="round" stroke-width="32"/>

</g>

</svg>