<svg width="12" height="12" viewBox="0 0 12 12" fill="none" xmlns="http://www.w3.org/2000/svg">
<rect width="12" height="12" rx="6" fill="#A0E6F0"/>
<mask id="mask0_83_1329" style="mask-type:alpha" maskUnits="userSpaceOnUse" x="1" y="1" width="10" height="10">
<rect x="1" y="1" width="20" height="20" fill="#302E3D"/>
</mask>
<g>
<path d="M5.35409 7.45834C5.5277 7.63195 5.74645 7.71348 6.01033 7.70292C6.27422 7.69264 6.4652 7.59723 6.58325 7.41667L8.91658 3.91667L5.41659 6.25001C5.23603 6.37501 5.13714 6.56417 5.11992 6.8175C5.10242 7.07112 5.18047 7.28473 5.35409 7.45834ZM3.12492 9.33334C2.97214 9.33334 2.83159 9.30028 2.70325 9.23417C2.57464 9.16834 2.47214 9.06945 2.39575 8.9375C2.2152 8.61112 2.07631 8.27264 1.97909 7.92209C1.88186 7.57126 1.83325 7.20834 1.83325 6.83334C1.83325 6.25695 1.9427 5.71528 2.16159 5.20834C2.3802 4.70139 2.677 4.26042 3.052 3.88542C3.427 3.51042 3.86797 3.21348 4.37492 2.99459C4.88186 2.77598 5.42353 2.66667 5.99992 2.66667C6.56936 2.66667 7.10409 2.77431 7.60409 2.98959C8.10409 3.20487 8.54158 3.49834 8.91658 3.87001C9.29158 4.24139 9.5902 4.67528 9.81242 5.17167C10.0346 5.66834 10.1492 6.20139 10.1562 6.77084C10.1631 7.15278 10.1198 7.52612 10.0262 7.89084C9.93228 8.25528 9.78811 8.60417 9.59367 8.9375C9.51728 9.06945 9.41492 9.16834 9.28659 9.23417C9.15797 9.30028 9.01728 9.33334 8.8645 9.33334H3.12492Z" fill="#302E3D"/>
</g>
</svg>
