<svg width="12" height="12" viewBox="0 0 12 12" fill="none" xmlns="http://www.w3.org/2000/svg">
<rect width="12" height="12" rx="6" fill="#FFE06B"/>
<mask id="mask0_83_1340" style="mask-type:alpha" maskUnits="userSpaceOnUse" x="1" y="1" width="10" height="10">
<rect x="1" y="1" width="10" height="10" fill="#302E3D"/>
</mask>
<g>
<path d="M8.91675 4.75001L8.39592 3.60417L7.25008 3.08334L8.39592 2.56251L8.91675 1.41667L9.43758 2.56251L10.5834 3.08334L9.43758 3.60417L8.91675 4.75001ZM8.91675 10.5833L8.39592 9.43751L7.25008 8.91667L8.39592 8.39584L8.91675 7.25001L9.43758 8.39584L10.5834 8.91667L9.43758 9.43751L8.91675 10.5833ZM4.75008 9.33334L3.70841 7.04167L1.41675 6.00001L3.70841 4.95834L4.75008 2.66667L5.79175 4.95834L8.08342 6.00001L5.79175 7.04167L4.75008 9.33334Z" fill="#302E3D"/>
</g>
</svg>
