<svg width="26" height="26" viewBox="0 0 26 26" fill="none" xmlns="http://www.w3.org/2000/svg">
<rect width="26" height="26" rx="7" fill="#7700F6"/>
<mask id="mask0_53_863" style="mask-type:alpha" maskUnits="userSpaceOnUse" x="2" y="2" width="22" height="22">
<rect x="2" y="2" width="22" height="22" fill="#D9D9D9"/>
</mask>
<g mask="url(#mask0_53_863)">
<path d="M13.0003 15.9792C13.9475 15.9792 14.7573 15.6431 15.4295 14.9709C16.1017 14.2987 16.4378 13.4889 16.4378 12.5417C16.4378 11.5945 16.1017 10.7848 15.4295 10.1125C14.7573 9.44032 13.9475 9.10421 13.0003 9.10421C12.0531 9.10421 11.2434 9.44032 10.5712 10.1125C9.89894 10.7848 9.56283 11.5945 9.56283 12.5417C9.56283 13.4889 9.89894 14.2987 10.5712 14.9709C11.2434 15.6431 12.0531 15.9792 13.0003 15.9792ZM12.3128 22.8542V21.0209H10.4795V19.6459H12.3128V17.3084C11.1364 17.125 10.155 16.5827 9.36849 15.6813C8.58138 14.7799 8.18783 13.7334 8.18783 12.5417C8.18783 12.0223 8.26819 11.5181 8.42891 11.0292C8.58902 10.5403 8.82185 10.082 9.12741 9.65421L8.14199 8.69171L6.85866 9.97504L5.89616 9.01254L7.17949 7.70629L4.97949 5.50629V8.18754H3.60449V3.14587H8.64616V4.52087H5.96491L8.16491 6.72087L9.47116 5.43754L10.4337 6.40004L9.15033 7.70629L10.1357 8.69171C10.5482 8.37087 10.9989 8.1301 11.4878 7.96937C11.9767 7.80926 12.4809 7.72921 13.0003 7.72921C13.5198 7.72921 14.0239 7.80926 14.5128 7.96937C15.0017 8.1301 15.4524 8.37087 15.8649 8.69171L20.0357 4.52087H17.3545V3.14587H22.3962V8.18754H21.0212V5.50629L16.8503 9.65421C17.1559 10.082 17.3927 10.5403 17.5607 11.0292C17.7288 11.5181 17.8128 12.0223 17.8128 12.5417C17.8128 13.7334 17.4196 14.7799 16.6331 15.6813C15.846 16.5827 14.8642 17.125 13.6878 17.3084V19.6459H15.5212V21.0209H13.6878V22.8542H12.3128Z" fill="white"/>
</g>
</svg>
