<svg width="24" height="24" viewBox="0 0 24 24" fill="none" xmlns="http://www.w3.org/2000/svg">
<rect width="24" height="24" rx="5" fill="#7BD3A3"/>
<mask id="mask0_541_5108" style="mask-type:alpha" maskUnits="userSpaceOnUse" x="1" y="1" width="22" height="22">
<rect x="1" y="1" width="22" height="22" fill="#FFFFFF"/>
</mask>
<g mask="url(#mask0_541_5108)">
<path d="M13.8793 19.425V18.0042C15.1932 17.5917 16.255 16.8315 17.0647 15.7235C17.8744 14.6162 18.2793 13.3674 18.2793 11.9771C18.2793 10.5868 17.8744 9.3377 17.0647 8.22976C16.255 7.12242 15.1932 6.36251 13.8793 5.95001V4.52917C15.5751 4.98751 16.9614 5.90417 18.0382 7.27917C19.1156 8.65417 19.6543 10.2201 19.6543 11.9771C19.6543 13.734 19.1156 15.3 18.0382 16.675C16.9614 18.05 15.5751 18.9667 13.8793 19.425ZM4.34595 14.2917V9.70834H7.76053L11.6793 5.76667V18.2333L7.76053 14.2917H4.34595ZM13.8793 15.3458V8.60834C14.4904 8.94445 14.964 9.41806 15.3001 10.0292C15.6362 10.6403 15.8043 11.2972 15.8043 12C15.8043 12.7028 15.6362 13.3521 15.3001 13.9479C14.964 14.5438 14.4904 15.0097 13.8793 15.3458Z" fill="#1C1B1F"/>
</g>
</svg>
