<svg width="14" height="14" viewBox="0 0 14 14" fill="none" xmlns="http://www.w3.org/2000/svg">
<path d="M0.402832 5.68061C0.402832 4.71302 0.59811 3.79776 0.988665 2.93485C1.37878 2.07149 1.93669 1.32644 2.66238 0.699707L3.60248 1.62332C3.00873 2.1401 2.54693 2.74748 2.21707 3.44547C1.88721 4.1439 1.72228 4.88894 1.72228 5.68061H0.402832ZM12.2778 5.68061C12.2778 4.88894 12.1129 4.1439 11.783 3.44547C11.4532 2.74748 10.9914 2.1401 10.3976 1.62332L11.3377 0.699707C12.0634 1.32644 12.6215 2.07149 13.0121 2.93485C13.4022 3.79776 13.5973 4.71302 13.5973 5.68061H12.2778ZM1.72228 11.6181V10.2987H3.04172V5.68061C3.04172 4.76799 3.31661 3.95698 3.86637 3.24755C4.41614 2.53857 5.13084 2.07413 6.01047 1.85422V1.39242C6.01047 1.11753 6.10679 0.883989 6.29943 0.69179C6.49163 0.499151 6.72517 0.402832 7.00005 0.402832C7.27494 0.402832 7.50848 0.499151 7.70068 0.69179C7.89332 0.883989 7.98964 1.11753 7.98964 1.39242V1.85422C8.86927 2.07413 9.58397 2.53857 10.1337 3.24755C10.6835 3.95698 10.9584 4.76799 10.9584 5.68061V10.2987H12.2778V11.6181H1.72228ZM7.00005 13.5973C6.63721 13.5973 6.3267 13.4682 6.06853 13.21C5.80992 12.9514 5.68061 12.6407 5.68061 12.2778H8.3195C8.3195 12.6407 8.19041 12.9514 7.93224 13.21C7.67363 13.4682 7.3629 13.5973 7.00005 13.5973Z" fill="white"/>
</svg>
