<svg width="16" height="16" viewBox="0 0 16 16" fill="none" xmlns="http://www.w3.org/2000/svg">
<rect width="16" height="16" rx="3" fill="#FFE06B"/>
<mask id="mask0_1108_2827" style="mask-type:alpha" maskUnits="userSpaceOnUse" x="1" y="1" width="14" height="14">
<rect x="1.5" y="1.5" width="13" height="13" fill="#FFFFFF"/>
</mask>
<g mask="url(#mask0_1108_2827)">
<path d="M5.83293 12.3328H10.1663V10.7078C10.1663 10.1119 9.95411 9.60186 9.5298 9.17756C9.1055 8.75325 8.59543 8.5411 7.99959 8.5411C7.40376 8.5411 6.89369 8.75325 6.46938 9.17756C6.04508 9.60186 5.83293 10.1119 5.83293 10.7078V12.3328ZM3.66626 13.4161V12.3328H4.74959V10.7078C4.74959 10.1571 4.87833 9.64014 5.1358 9.15697C5.39291 8.67417 5.75168 8.28832 6.21209 7.99943C5.75168 7.71054 5.39291 7.32451 5.1358 6.84135C4.87833 6.35854 4.74959 5.84179 4.74959 5.2911V3.6661H3.66626V2.58276H12.3329V3.6661H11.2496V5.2911C11.2496 5.84179 11.121 6.35854 10.8639 6.84135C10.6065 7.32451 10.2475 7.71054 9.78709 7.99943C10.2475 8.28832 10.6065 8.67417 10.8639 9.15697C11.121 9.64014 11.2496 10.1571 11.2496 10.7078V12.3328H12.3329V13.4161H3.66626Z" fill="#0B0B19"/>
</g>
</svg>
