<svg width="17" height="17" viewBox="0 0 17 17" fill="none" xmlns="http://www.w3.org/2000/svg">
<rect x="0.5" width="16" height="16" rx="3" fill="#65FFCB"/>
<mask id="mask0_1029_2834" style="mask-type:alpha" maskUnits="userSpaceOnUse" x="1" y="1" width="15" height="14">
<rect x="1.5" y="1" width="14" height="14" fill="#FFFFFF"/>
</mask>
<g mask="url(#mask0_1029_2834)">
<path d="M8.5 4.49972C8.17917 4.49972 7.90461 4.38538 7.67633 4.15672C7.44767 3.92844 7.33333 3.65388 7.33333 3.33305C7.33333 3.01222 7.44767 2.73747 7.67633 2.5088C7.90461 2.28052 8.17917 2.16638 8.5 2.16638C8.82083 2.16638 9.09558 2.28052 9.32425 2.5088C9.55253 2.73747 9.66667 3.01222 9.66667 3.33305C9.66667 3.65388 9.55253 3.92844 9.32425 4.15672C9.09558 4.38538 8.82083 4.49972 8.5 4.49972ZM6.75 13.833V6.24972C6.16667 6.2011 5.57361 6.12819 4.97083 6.03097C4.36806 5.93374 3.79444 5.81222 3.25 5.66638L3.54167 4.49972C4.3 4.70388 5.10694 4.85205 5.9625 4.94422C6.81806 5.03677 7.66389 5.08305 8.5 5.08305C9.33611 5.08305 10.1819 5.03677 11.0375 4.94422C11.8931 4.85205 12.7 4.70388 13.4583 4.49972L13.75 5.66638C13.2056 5.81222 12.6319 5.93374 12.0292 6.03097C11.4264 6.12819 10.8333 6.2011 10.25 6.24972V13.833H9.08333V10.333H7.91667V13.833H6.75Z" fill="#0B0B19"/>
</g>
</svg>
